<svg width="18" height="17" viewBox="0 0 18 17" fill="none" xmlns="http://www.w3.org/2000/svg">
<g clip-path="url(#clip0_449_592)">
<path d="M11.9999 5.5C11.4468 5.5 10.9999 5.05313 10.9999 4.5C10.9999 3.94687 11.4468 3.5 11.9999 3.5H16.9999C17.553 3.5 17.9999 3.94687 17.9999 4.5V9.5C17.9999 10.0531 17.553 10.5 16.9999 10.5C16.4468 10.5 15.9999 10.0531 15.9999 9.5V6.91563L10.7062 12.2063C10.3155 12.5969 9.68115 12.5969 9.29053 12.2063L5.9999 8.91562L1.70615 13.2063C1.31553 13.5969 0.681152 13.5969 0.290527 13.2063C-0.100098 12.8156 -0.100098 12.1812 0.290527 11.7906L5.29053 6.79063C5.68115 6.4 6.31553 6.4 6.70615 6.79063L9.9999 10.0844L14.5843 5.5H11.9999Z" fill="#44443D"/>
</g>
<defs>
<clipPath id="clip0_449_592">
<rect width="18" height="16" fill="white" transform="translate(0 0.5)"/>
</clipPath>
</defs>
</svg>
