<svg width="16" height="12" viewBox="0 0 16 12" fill="none" xmlns="http://www.w3.org/2000/svg">
<path d="M4.17013 0.857067C3.11014 1.8114 2.11382 2.83422 1.18759 3.91894C0.688876 4.52545 -0.0640922 5.19065 0.00435941 6.04171C0.072811 6.89277 0.796443 7.25472 1.3245 7.7634C2.28877 8.68767 3.1331 9.7295 3.83765 10.8644C4.67863 12.1948 6.77129 10.972 5.94987 9.63183C5.41654 8.78084 4.8217 7.97 4.17013 7.20581C3.80931 6.79498 3.42742 6.40316 3.02601 6.03193C2.81088 5.8265 2.18503 4.91674 2.36105 5.55259L2.23393 6.53083C3.23863 5.04754 4.46557 3.72778 5.87164 2.61789C7.03532 1.5614 5.30447 -0.170079 4.14079 0.896197L4.17013 0.857067Z" fill="#44443D"/>
<path d="M2.57373 7.47972C6.65652 7.6819 10.7475 7.64924 14.8266 7.3819C16.3814 7.27429 16.401 4.8287 14.8266 4.93631C10.7475 5.20365 6.65652 5.23631 2.57373 5.03413C0.999345 4.96566 1.00912 7.41124 2.57373 7.47972Z" fill="#44443D"/>
</svg>
