<svg width="16" height="16" viewBox="0 0 16 16" fill="none" xmlns="http://www.w3.org/2000/svg">
<g clip-path="url(#clip0_240_410)">
<path d="M15 1C15 0.596875 14.7563 0.23125 14.3813 0.0750002C14.0063 -0.0812498 13.5781 0.00625017 13.2906 0.290625L11.9281 1.65625C10.4281 3.15625 8.39375 4 6.27187 4H6H5H2C0.896875 4 0 4.89687 0 6V9C0 10.1031 0.896875 11 2 11V15C2 15.5531 2.44688 16 3 16H5C5.55312 16 6 15.5531 6 15V11H6.27187C8.39375 11 10.4281 11.8438 11.9281 13.3438L13.2906 14.7063C13.5781 14.9938 14.0063 15.0781 14.3813 14.9219C14.7563 14.7656 15 14.4031 15 13.9969V9.3875C15.5813 9.1125 16 8.37187 16 7.5C16 6.62813 15.5813 5.8875 15 5.6125V1ZM13 3.39688V7.5V11.6031C11.1625 9.93125 8.76562 9 6.27187 9H6V6H6.27187C8.76562 6 11.1625 5.06875 13 3.39688Z" fill="#44443D"/>
</g>
<defs>
<clipPath id="clip0_240_410">
<rect width="16" height="16" fill="white"/>
</clipPath>
</defs>
</svg>
