<svg width="18" height="12" viewBox="0 0 18 12" fill="none" xmlns="http://www.w3.org/2000/svg">
<g clip-path="url(#clip0_435_556)">
<path d="M4.81781 1.71429H6.3V4.28571H3.13031L3.98531 2.25268C4.12031 1.92857 4.44937 1.71429 4.81781 1.71429ZM7.65 4.28571V1.71429H9.93375C10.2066 1.71429 10.4653 1.83214 10.6369 2.03571L12.5269 4.28571H7.65ZM14.8556 4.3125L12.0431 0.964286C11.5313 0.353571 10.755 0 9.93375 0H4.81781C3.7125 0 2.71969 0.640179 2.31187 1.61518L1.14187 4.40357C0.4725 4.65536 0 5.27411 0 6V9C0 9.47411 0.402187 9.85714 0.9 9.85714H1.83656C2.05031 11.0732 3.16125 12 4.5 12C5.83875 12 6.94969 11.0732 7.16344 9.85714H10.8366C11.0503 11.0732 12.1613 12 13.5 12C14.8387 12 15.9497 11.0732 16.1634 9.85714H17.1C17.5978 9.85714 18 9.47411 18 9V7.71429C18 5.96786 16.6275 4.52679 14.8556 4.3125ZM12.2259 9C12.2832 8.83864 12.3736 8.68974 12.4918 8.56193C12.6101 8.43412 12.7538 8.32997 12.9147 8.25551C13.0755 8.18105 13.2503 8.13777 13.4289 8.12819C13.6074 8.11861 13.7862 8.14292 13.9548 8.1997C14.1235 8.25648 14.2785 8.34461 14.4111 8.45896C14.5437 8.57331 14.651 8.71161 14.727 8.86582C14.803 9.02003 14.846 9.18707 14.8536 9.35725C14.8612 9.52743 14.8332 9.69735 14.7712 9.85714C14.714 10.0185 14.6236 10.1674 14.5053 10.2952C14.3871 10.423 14.2434 10.5272 14.0825 10.6016C13.9217 10.6761 13.7469 10.7194 13.5683 10.729C13.3898 10.7385 13.211 10.7142 13.0423 10.6574C12.8737 10.6007 12.7186 10.5125 12.5861 10.3982C12.4535 10.2838 12.3462 10.1455 12.2702 9.99133C12.1942 9.83712 12.1512 9.67007 12.1436 9.49989C12.136 9.32971 12.164 9.15979 12.2259 9ZM4.5 8.14286C4.85804 8.14286 5.20142 8.27832 5.45459 8.51943C5.70777 8.76055 5.85 9.08758 5.85 9.42857C5.85 9.76956 5.70777 10.0966 5.45459 10.3377C5.20142 10.5788 4.85804 10.7143 4.5 10.7143C4.14196 10.7143 3.79858 10.5788 3.54541 10.3377C3.29223 10.0966 3.15 9.76956 3.15 9.42857C3.15 9.08758 3.29223 8.76055 3.54541 8.51943C3.79858 8.27832 4.14196 8.14286 4.5 8.14286Z" fill="#44443D"/>
</g>
<defs>
<clipPath id="clip0_435_556">
<rect width="18" height="12" fill="white"/>
</clipPath>
</defs>
</svg>
