<svg width="12" height="15" viewBox="0 0 12 15" fill="none" xmlns="http://www.w3.org/2000/svg">
<path d="M5.75 10C5.28587 10 4.84075 10.1844 4.51256 10.5126C4.18437 10.8408 4 11.2859 4 11.75C4 12.2141 4.18437 12.6592 4.51256 12.9874C4.84075 13.3156 5.28587 13.5 5.75 13.5C6.21413 13.5 6.65925 13.3156 6.98744 12.9874C7.31563 12.6592 7.5 12.2141 7.5 11.75C7.5 11.2859 7.31563 10.8408 6.98744 10.5126C6.65925 10.1844 6.21413 10 5.75 10ZM5.75 5C5.28587 5 4.84075 5.18437 4.51256 5.51256C4.18437 5.84075 4 6.28587 4 6.75C4 7.21413 4.18437 7.65925 4.51256 7.98744C4.84075 8.31563 5.28587 8.5 5.75 8.5C6.21413 8.5 6.65925 8.31563 6.98744 7.98744C7.31563 7.65925 7.5 7.21413 7.5 6.75C7.5 6.28587 7.31563 5.84075 6.98744 5.51256C6.65925 5.18437 6.21413 5 5.75 5ZM7.5 1.75C7.5 1.28587 7.31563 0.840752 6.98744 0.512563C6.65925 0.184374 6.21413 0 5.75 0C5.28587 0 4.84075 0.184374 4.51256 0.512563C4.18437 0.840752 4 1.28587 4 1.75C4 2.21413 4.18437 2.65925 4.51256 2.98744C4.84075 3.31563 5.28587 3.5 5.75 3.5C6.21413 3.5 6.65925 3.31563 6.98744 2.98744C7.31563 2.65925 7.5 2.21413 7.5 1.75Z" fill="#EF8203"/>
</svg>
