<svg xmlns="http://www.w3.org/2000/svg" width="86" height="24" fill="none"><path fill="#4F4848" d="M42.5 16.487 41.5 3l4.5.339c1.014 0 2.96.36 3.63.71.673.349 1.175.832 1.508 1.45.332.614.498 1.323.498 2.129 0 .801-.168 1.506-.505 2.116-.332.605-.835 1.076-1.508 1.412-.67.337-1.51.505-2.525.505h-3.535v-1.7h3.356c.64 0 1.16-.092 1.56-.275.404-.183.7-.45.888-.799.188-.35.282-.77.282-1.26 0-.493-.096-.922-.288-1.284a1.857 1.857 0 0 0-.889-.83c-.4-.197-.927-.295-1.578-.295h-2.48v11.397l-1.914-.128Zm6.4-5.778 3.235 5.906h-2.25l-3.17-5.906H48.9Zm13.144 6.098c-.792 0-1.5-.203-2.122-.607-.618-.41-1.104-.991-1.457-1.745-.35-.759-.525-1.669-.525-2.73 0-1.06.177-1.969.531-2.723.358-.754.848-1.332 1.47-1.732.622-.4 1.328-.601 2.116-.601.61 0 1.1.102 1.47.307.375.2.665.435.87.703.208.268.37.505.485.71h.115V3.523L67.5 3l-.591 13.615h-1.867v-1.528h-.16a5.058 5.058 0 0 1-.498.716c-.213.269-.507.503-.882.703-.375.2-.861.3-1.458.3Zm.422-1.63c.55 0 1.014-.145 1.394-.435.383-.294.673-.7.869-1.22.2-.52.3-1.126.3-1.816 0-.682-.098-1.278-.294-1.79-.196-.511-.483-.91-.863-1.195-.379-.286-.848-.428-1.406-.428-.575 0-1.055.149-1.438.447-.384.298-.673.705-.87 1.22-.191.517-.287 1.098-.287 1.746 0 .656.098 1.246.294 1.77.196.525.486.94.87 1.247.387.303.864.454 1.431.454Zm11.402 1.636c-.967 0-1.8-.206-2.5-.62a4.206 4.206 0 0 1-1.61-1.758c-.375-.758-.563-1.647-.563-2.665 0-1.006.188-1.892.563-2.66.38-.766.907-1.365 1.585-1.795.682-.43 1.479-.646 2.39-.646a4.81 4.81 0 0 1 1.611.275 3.9 3.9 0 0 1 1.4.863c.414.392.74.901.978 1.528.239.622.358 1.378.358 2.269v.677h-7.804V10.85h5.931a2.83 2.83 0 0 0-.306-1.336 2.32 2.32 0 0 0-.863-.926c-.367-.226-.797-.34-1.291-.34-.537 0-1.006.133-1.407.397-.396.26-.703.601-.92 1.023-.213.418-.32.871-.32 1.361v1.119c0 .656.115 1.214.345 1.675.235.46.56.812.978 1.054.418.24.906.358 1.464.358.362 0 .693-.05.99-.153a2.14 2.14 0 0 0 .774-.473c.218-.209.441-.825.556-1.131l1.752.684a3.284 3.284 0 0 1-.78 1.4 3.78 3.78 0 0 1-1.4.926c-.558.218-1.195.326-1.911.326Zm6.332-.198-1.7-10.5 3.548.682v1.56h.102c.18-.529.495-.944.946-1.247.456-.307.972-.46 1.547-.46a8.172 8.172 0 0 1 .812.045v1.828a3.427 3.427 0 0 0-.409-.07 3.904 3.904 0 0 0-.588-.045c-.452 0-.855.096-1.208.287a2.137 2.137 0 0 0-1.138 1.924v5.996h-1.911Z"/><path fill="#4F4848" fill-rule="evenodd" d="M53.886 6.797v9.818h1.912L56.5 6.5l-2.614.297Z" clip-rule="evenodd"/><path fill="#4F4848" d="M54.852 5.282c-.333 0-.618-.11-.857-.332a1.08 1.08 0 0 1-.351-.806c0-.315.117-.584.351-.805.239-.226.524-.339.857-.339.332 0 .615.113.85.339.238.221.358.49.358.805 0 .311-.12.58-.358.806a1.192 1.192 0 0 1-.85.332Z"/><path fill="#1AEA79" d="M1.94 5.378A6 6 0 0 1 7.907 0H32.98a6 6 0 0 1 5.98 5.502l.84 10.093c.343 4.112-3.472 7.335-7.469 6.31l-9.893-2.537a6 6 0 0 0-2.88-.024L8.234 22.039C4.212 22.997.45 19.694.877 15.581L1.94 5.378Z"/><path fill="#fff" d="M6.438 17V3.91h8.208v1.7H8.413v3.988h5.804v1.694H8.413V15.3h6.31V17H6.437Zm14.828.198c-.95 0-1.768-.215-2.454-.646a4.274 4.274 0 0 1-1.573-1.796c-.366-.762-.55-1.636-.55-2.62 0-.997.188-1.877.563-2.64.375-.767.903-1.366 1.585-1.796.682-.43 1.485-.646 2.41-.646.746 0 1.41.138 1.994.415a3.577 3.577 0 0 1 1.413 1.151c.362.494.577 1.072.646 1.732h-1.86a2.23 2.23 0 0 0-.704-1.189c-.362-.332-.848-.498-1.457-.498-.533 0-1 .14-1.4.422-.396.277-.705.673-.927 1.188-.221.512-.332 1.117-.332 1.816 0 .716.108 1.334.326 1.854.217.52.524.922.92 1.208.4.285.872.428 1.413.428.362 0 .69-.066.984-.198a2.01 2.01 0 0 0 .748-.582c.205-.251.348-.554.428-.908h1.86a3.614 3.614 0 0 1-.62 1.7c-.345.5-.807.891-1.386 1.177-.576.285-1.251.428-2.027.428Zm10.214 0c-.921 0-1.725-.21-2.41-.633a4.267 4.267 0 0 1-1.599-1.77c-.379-.759-.569-1.645-.569-2.66 0-1.018.19-1.908.57-2.671a4.248 4.248 0 0 1 1.597-1.777c.686-.422 1.49-.633 2.41-.633.92 0 1.724.21 2.41.633a4.257 4.257 0 0 1 1.598 1.777c.38.762.569 1.653.569 2.672 0 1.014-.19 1.9-.57 2.659a4.268 4.268 0 0 1-1.597 1.77c-.686.422-1.49.633-2.41.633Zm.005-1.604c.597 0 1.091-.158 1.483-.473.392-.316.682-.735.87-1.26a5.008 5.008 0 0 0 .287-1.732c0-.626-.096-1.201-.287-1.726-.188-.528-.477-.952-.87-1.272-.392-.32-.886-.479-1.483-.479-.6 0-1.099.16-1.495.48-.392.319-.684.743-.876 1.271a5.09 5.09 0 0 0-.281 1.726c0 .63.094 1.208.281 1.733.192.524.484.943.876 1.259.396.315.895.473 1.495.473Z"/></svg>