<svg width="32" height="32" viewBox="0 0 32 32" fill="none" xmlns="http://www.w3.org/2000/svg">
<path d="M7.00018 5.71442C7.00018 4.76613 7.75986 4 8.70016 4H12.1001H12.9501H22.3C23.2403 4 24 4.76613 24 5.71442C24 6.6627 23.2403 7.42883 22.3 7.42883H19.3144C19.8244 8.20032 20.2016 9.06824 20.4141 10.0005H22.3C23.2403 10.0005 24 10.7666 24 11.7149C24 12.6632 23.2403 13.4293 22.3 13.4293H20.4088C19.7075 16.5527 17.1204 18.9583 13.917 19.3708L21.5882 24.8944C22.3531 25.4463 22.5285 26.5178 21.9813 27.2839C21.4341 28.05 20.3716 28.2322 19.6119 27.6804L7.71205 19.1083C7.11174 18.6797 6.85675 17.9028 7.07987 17.1903C7.30299 16.4777 7.96173 16.0009 8.70016 16.0009H12.9501C14.6926 16.0009 16.1907 14.9455 16.8441 13.4293H8.70016C7.75986 13.4293 7.00018 12.6632 7.00018 11.7149C7.00018 10.7666 7.75986 10.0005 8.70016 10.0005H16.8441C16.1907 8.48427 14.6926 7.42883 12.9501 7.42883H12.1001H8.70016C7.75986 7.42883 7.00018 6.6627 7.00018 5.71442Z" fill="#44443D"/>
</svg>
