<svg width="16" height="17" viewBox="0 0 16 17" fill="none" xmlns="http://www.w3.org/2000/svg">
<g clip-path="url(#clip0_111_506)">
<path d="M11.3344 1.10315L9.8219 2.61565L13.8844 6.67815L15.3969 5.16565C16.1782 4.3844 16.1782 3.11877 15.3969 2.33752L14.1657 1.10315C13.3844 0.321899 12.1188 0.321899 11.3375 1.10315H11.3344ZM9.11565 3.3219L1.83128 10.6094C1.50628 10.9344 1.26878 11.3375 1.13753 11.7781L0.0312776 15.5375C-0.0468474 15.8032 0.0250276 16.0875 0.218778 16.2813C0.412528 16.475 0.696903 16.5469 0.959403 16.4719L4.71878 15.3657C5.1594 15.2344 5.56253 14.9969 5.88753 14.6719L13.1782 7.3844L9.11565 3.3219Z" fill="#44443D"/>
</g>
<defs>
<clipPath id="clip0_111_506">
<rect width="16" height="16" fill="white" transform="translate(0 0.5)"/>
</clipPath>
</defs>
</svg>
