<svg width="32" height="32" viewBox="0 0 32 32" fill="none" xmlns="http://www.w3.org/2000/svg">
<path d="M5.925 8.5C5.925 7.83696 6.16469 7.20107 6.59133 6.73223C7.01798 6.26339 7.59663 6 8.2 6C8.80337 6 9.38202 6.26339 9.80867 6.73223C10.2353 7.20107 10.475 7.83696 10.475 8.5C10.475 9.16304 10.2353 9.79893 9.80867 10.2678C9.38202 10.7366 8.80337 11 8.2 11C7.59663 11 7.01798 10.7366 6.59133 10.2678C6.16469 9.79893 5.925 9.16304 5.925 8.5ZM5.6 15.5402C5.19375 16.0402 4.95 16.7054 4.95 17.4286C4.95 18.1518 5.19375 18.817 5.6 19.317V15.5402ZM11.4662 13.3393C10.2597 14.5134 9.5 16.2321 9.5 18.1429C9.5 19.6741 9.9875 21.0804 10.8 22.183V23.1429C10.8 23.933 10.2191 24.5714 9.5 24.5714H6.9C6.18094 24.5714 5.6 23.933 5.6 23.1429V21.9464C4.06438 21.1429 3 19.4241 3 17.4286C3 14.6652 5.03531 12.4286 7.55 12.4286H8.85C9.825 12.4286 10.7269 12.7634 11.4662 13.3348V13.3393ZM21.2 23.1429V22.183C22.0125 21.0804 22.5 19.6741 22.5 18.1429C22.5 16.2321 21.7403 14.5134 20.5338 13.3348C21.2731 12.7634 22.175 12.4286 23.15 12.4286H24.45C26.9647 12.4286 29 14.6652 29 17.4286C29 19.4241 27.9356 21.1429 26.4 21.9464V23.1429C26.4 23.933 25.8191 24.5714 25.1 24.5714H22.5C21.7809 24.5714 21.2 23.933 21.2 23.1429ZM21.525 8.5C21.525 7.83696 21.7647 7.20107 22.1913 6.73223C22.618 6.26339 23.1966 6 23.8 6C24.4034 6 24.982 6.26339 25.4087 6.73223C25.8353 7.20107 26.075 7.83696 26.075 8.5C26.075 9.16304 25.8353 9.79893 25.4087 10.2678C24.982 10.7366 24.4034 11 23.8 11C23.1966 11 22.618 10.7366 22.1913 10.2678C21.7647 9.79893 21.525 9.16304 21.525 8.5ZM26.4 15.5402V19.3214C26.8062 18.817 27.05 18.1563 27.05 17.433C27.05 16.7098 26.8062 16.0446 26.4 15.5446V15.5402ZM16 6C16.6896 6 17.3509 6.30102 17.8385 6.83684C18.3261 7.37266 18.6 8.09938 18.6 8.85714C18.6 9.6149 18.3261 10.3416 17.8385 10.8774C17.3509 11.4133 16.6896 11.7143 16 11.7143C15.3104 11.7143 14.6491 11.4133 14.1615 10.8774C13.6739 10.3416 13.4 9.6149 13.4 8.85714C13.4 8.09938 13.6739 7.37266 14.1615 6.83684C14.6491 6.30102 15.3104 6 16 6ZM12.75 18.1429C12.75 18.8661 12.9937 19.5268 13.4 20.0312V16.2545C12.9937 16.7589 12.75 17.4196 12.75 18.1429ZM18.6 16.2545V20.0357C19.0062 19.5312 19.25 18.8705 19.25 18.1473C19.25 17.4241 19.0062 16.7589 18.6 16.2589V16.2545ZM21.2 18.1429C21.2 20.1384 20.1356 21.8571 18.6 22.6607V24.5714C18.6 25.3616 18.0191 26 17.3 26H14.7C13.9809 26 13.4 25.3616 13.4 24.5714V22.6607C11.8644 21.8571 10.8 20.1384 10.8 18.1429C10.8 15.3795 12.8353 13.1429 15.35 13.1429H16.65C19.1647 13.1429 21.2 15.3795 21.2 18.1429Z" fill="#EF8203"/>
</svg>
