<svg width="24" height="25" viewBox="0 0 24 25" fill="none" xmlns="http://www.w3.org/2000/svg">
<rect y="0.5" width="24" height="24" rx="3" fill="#1972F7"/>
<path d="M9.1529 5.76942C8.91228 5.1882 8.27794 4.87883 7.67171 5.04445L4.92183 5.79442C4.37811 5.94441 4 6.43814 4 7.00062C4 14.7315 10.2685 21 17.9994 21C18.5619 21 19.0556 20.6219 19.2056 20.0782L19.9555 17.3283C20.1212 16.7221 19.8118 16.0877 19.2306 15.8471L16.2307 14.5972C15.7214 14.3847 15.1308 14.5315 14.7839 14.9596L13.5215 16.5002C11.3216 15.4596 9.54038 13.6784 8.4998 11.4785L10.0404 10.2192C10.4685 9.86924 10.6153 9.28177 10.4028 8.77241L9.1529 5.77255V5.76942Z" fill="white"/>
</svg>
