<svg width="32" height="32" viewBox="0 0 32 32" fill="none" xmlns="http://www.w3.org/2000/svg">
<path d="M11.7293 5.15413C11.3684 4.28229 10.4169 3.81825 9.50757 4.06668L5.38275 5.19163C4.56716 5.41662 4 6.15721 4 7.00092C4 18.5973 13.4027 28 24.9991 28C25.8428 28 26.5834 27.4328 26.8084 26.6173L27.9333 22.4924C28.1817 21.5831 27.7177 20.6316 26.8459 20.2707L22.3461 18.3957C21.582 18.077 20.6961 18.2973 20.1758 18.9395L18.2822 21.2503C14.9823 19.6894 12.3106 17.0177 10.7497 13.7178L13.0605 11.8288C13.7027 11.3039 13.923 10.4226 13.6043 9.65862L11.7293 5.15882V5.15413Z" fill="#1779ED"/>
</svg>
