<svg width="32" height="32" viewBox="0 0 32 32" fill="none" xmlns="http://www.w3.org/2000/svg">
<path d="M5.375 4C3.51348 4 2 5.5375 2 7.42857V24.5714C2 26.4625 3.51348 28 5.375 28H25.625C27.4865 28 29 26.4625 29 24.5714V7.42857C29 5.5375 27.4865 4 25.625 4H5.375ZM11.2285 11.6607C11.7242 11.1571 12.5258 11.1571 13.0162 11.6607L15.4947 14.1786L17.9732 11.6607C18.4689 11.1571 19.2705 11.1571 19.7609 11.6607C20.2514 12.1643 20.2566 12.9786 19.7609 13.4768L17.2824 15.9946L19.7609 18.5125C20.2566 19.0161 20.2566 19.8304 19.7609 20.3286C19.2652 20.8268 18.4637 20.8321 17.9732 20.3286L15.4947 17.8107L13.0162 20.3286C12.5205 20.8321 11.7189 20.8321 11.2285 20.3286C10.7381 19.825 10.7328 19.0107 11.2285 18.5125L13.707 15.9946L11.2285 13.4768C10.7328 12.9732 10.7328 12.1589 11.2285 11.6607Z" fill="#E5180B"/>
</svg>
