<svg width="290" height="137" viewBox="0 0 290 137" fill="none" xmlns="http://www.w3.org/2000/svg">
<g clip-path="url(#clip0_157_333)">
<path d="M58.5124 96.9481C57.6608 96.949 56.8443 97.2879 56.2421 97.8904C55.64 98.4929 55.3012 99.3098 55.3003 100.162V107.681C55.3012 108.533 55.64 109.349 56.2421 109.952C56.8443 110.554 57.6608 110.893 58.5124 110.894H62.5866C63.4382 110.893 64.2546 110.554 64.8568 109.952C65.459 109.349 65.7977 108.533 65.7986 107.681V100.162C65.7977 99.3098 65.459 98.4929 64.8568 97.8904C64.2546 97.2879 63.4382 96.949 62.5866 96.9481H58.5124Z" fill="#3F3D56"/>
<path d="M133.825 111.144H129.751C128.833 111.143 127.953 110.778 127.304 110.129C126.655 109.479 126.29 108.599 126.289 107.681V100.162C126.29 99.2435 126.655 98.3631 127.304 97.7137C127.953 97.0643 128.833 96.699 129.751 96.698H133.825C134.743 96.699 135.623 97.0643 136.272 97.7137C136.921 98.3631 137.286 99.2435 137.287 100.162V107.681C137.286 108.599 136.921 109.479 136.272 110.129C135.623 110.778 134.743 111.143 133.825 111.144Z" fill="#3F3D56"/>
<path d="M131.122 105.124H60.9657C57.7728 105.124 55.1753 103.241 55.1753 100.926V87.4288L58.6575 83.7596H134.107L136.912 87.4365V100.926C136.912 103.241 134.315 105.124 131.122 105.124Z" fill="#CCCCCC"/>
<path d="M133.78 90.512H59.0577L58.2983 78.8625L58.7815 77.6704L61.5903 70.755H130.742L134.54 78.6079L133.78 90.512Z" fill="#CCCCCC"/>
<path d="M134.413 78.6329L133.855 87.386H117.416V80.8836L133.945 77.6675L134.413 78.6329Z" fill="white"/>
<path d="M75.1724 80.8836V87.3859H58.9798L58.4248 78.8828L58.8974 77.7175L75.1724 80.8836Z" fill="white"/>
<path d="M130.325 72.7557H62.0063L69.293 48.4542C69.5902 47.4506 70.2022 46.5692 71.0387 45.9404C71.8751 45.3116 72.8915 44.9686 73.9377 44.9623L119.183 44.5311C120.276 44.5205 121.341 44.8762 122.209 45.5416C123.077 46.207 123.697 47.1438 123.971 48.2028L130.325 72.7557Z" fill="#CCCCCC"/>
<path d="M125.066 70.4578L67.2546 69.7719C67.1815 69.7711 67.1096 69.7531 67.0448 69.7193C66.9799 69.6856 66.9238 69.6371 66.8811 69.5778C66.8384 69.5185 66.8102 69.4499 66.7987 69.3777C66.7873 69.3055 66.793 69.2316 66.8153 69.1619L72.3574 51.8616C72.3876 51.7673 72.4469 51.6851 72.5269 51.6267C72.6068 51.5683 72.7033 51.5369 72.8022 51.5369H119.301C119.4 51.5369 119.496 51.5683 119.576 51.6266C119.656 51.685 119.716 51.7672 119.746 51.8614L125.516 69.8476C125.539 69.9182 125.544 69.9931 125.532 70.0662C125.52 70.1393 125.491 70.2085 125.447 70.2681C125.403 70.3277 125.346 70.376 125.279 70.4089C125.213 70.4419 125.14 70.4587 125.066 70.4578Z" fill="white"/>
<path d="M103.957 47.4966H88.3743C88.243 47.4966 88.1239 47.3673 88.0635 47.159C88.0033 46.9457 88.012 46.7189 88.0883 46.5108L89.3733 43.2596C89.4388 43.0939 89.5457 42.995 89.6593 42.995H102.672C102.785 42.995 102.892 43.0939 102.958 43.2596L104.243 46.5108C104.319 46.7189 104.328 46.9457 104.267 47.159C104.207 47.3673 104.088 47.4966 103.957 47.4966Z" fill="#6C63FF"/>
<path d="M62.0492 72.2555H51.8008V70.0018C51.8016 69.2732 52.0912 68.5747 52.6062 68.0595C53.1211 67.5443 53.8192 67.2545 54.5474 67.2537H62.0492V72.2555Z" fill="#CCCCCC"/>
<path d="M140.537 72.2555H130.289V67.2537H137.79C138.519 67.2545 139.217 67.5443 139.732 68.0595C140.247 68.5747 140.536 69.2732 140.537 70.0018V72.2555Z" fill="#CCCCCC"/>
<path d="M50.6022 107.388L0.500488 125.396L0.713173 125.988L50.8148 107.981L50.6022 107.388Z" fill="#3F3D56"/>
<path d="M141.42 107.39L141.208 107.982L191.311 125.985L191.523 125.392L141.42 107.39Z" fill="#3F3D56"/>
<path d="M98.953 120.446H95.9541V116.571H98.953V120.446ZM98.953 112.695H95.9541V108.82H98.953V112.695Z" fill="#E6E6E6"/>
<path d="M98.953 136.5H95.9541V132.625H98.953V136.5ZM98.953 128.749H95.9541V124.873H98.953V128.749Z" fill="#E6E6E6"/>
<path d="M230.722 123.113H227.419L225.848 110.366H230.722V123.113Z" fill="#FFB8B8"/>
<path d="M231.565 126.316H220.915V126.181C220.916 125.082 221.353 124.027 222.13 123.25C222.907 122.472 223.961 122.035 225.06 122.034H231.564L231.565 126.316Z" fill="#2F2E41"/>
<path d="M273.314 116.851L270.483 118.553L262.575 108.437L266.753 105.925L273.314 116.851Z" fill="#FFB8B8"/>
<path d="M266.557 124.65L266.487 124.535C265.922 123.592 265.754 122.463 266.02 121.396C266.286 120.329 266.964 119.411 267.906 118.844L273.481 115.492L275.686 119.163L266.557 124.65Z" fill="#2F2E41"/>
<path d="M231.581 120.482L231.524 120.482C229.918 120.477 228.312 120.384 226.716 120.205C226.107 120.145 225.447 120.08 224.651 120.014L224.624 120.009C224.081 119.848 224.066 114.756 224.296 97.3246C224.414 88.3966 224.548 78.2776 224.389 71.8333L224.387 71.77L224.435 71.7283C230.327 66.601 237.893 64.6791 245.741 66.3165L245.799 66.3286L245.829 66.3798C249.075 71.8751 253.977 79.7908 258.716 87.4459C269.597 105.019 272.709 110.187 272.368 110.577L272.327 110.609C271.584 110.98 271.026 111.266 270.552 111.51C268.964 112.324 268.306 112.662 264.774 114.117L264.687 114.153L264.624 114.083C253.583 101.979 244.396 88.4583 238.713 75.9593C238.049 80.2264 237.243 85.7984 236.392 91.6857C233.943 108.615 232.287 119.763 231.621 120.442L231.581 120.482Z" fill="#2F2E41"/>
<path d="M248.729 17.7822C249.84 13.189 250.782 8.00834 248.685 3.77793C247.231 0.842656 241.848 -0.145814 238.763 0.911648C235.677 1.96911 233.447 4.83808 232.466 7.96617C231.485 11.0943 231.599 14.465 232.026 17.7169C237.701 17.6078 243.375 17.4987 248.729 17.7822Z" fill="#2F2E41"/>
<path d="M239.153 17.781C242.807 17.781 245.77 14.8169 245.77 11.1606C245.77 7.50424 242.807 4.54019 239.153 4.54019C235.498 4.54019 232.536 7.50424 232.536 11.1606C232.536 14.8169 235.498 17.781 239.153 17.781Z" fill="#FFB8B8"/>
<path d="M247.242 9.79683C247.263 8.68259 247.06 7.57549 246.645 6.54131C246.23 5.50714 245.611 4.56698 244.826 3.77671C244.04 2.98645 243.104 2.36219 242.073 1.94104C241.042 1.51989 239.936 1.31043 238.823 1.32512C237.709 1.33981 236.609 1.57835 235.59 2.02655C234.57 2.47476 233.65 3.12349 232.886 3.93419C232.122 4.7449 231.528 5.70104 231.141 6.74581C230.753 7.79057 230.579 8.90264 230.63 10.0159C236.293 10.028 241.957 10.04 247.242 9.79683Z" fill="#2F2E41"/>
<path d="M234.556 73.1355C241.139 73.1061 247.679 74.2016 253.893 76.3747C254.11 65.9389 250.519 55.4837 244.026 47.6622L243.977 47.6038L244.002 47.532C245.736 42.5184 247.529 37.3362 249.131 32.1796L249.106 32.093C247.983 28.0973 245.572 24.0596 241.735 19.7489C241.319 19.3175 240.754 19.0606 240.156 19.0303C239.557 18.9999 238.97 19.1985 238.512 19.5856C231.692 25.8405 227.984 35.2123 228.835 44.044L228.837 44.0699L228.83 44.095C225.826 54.2783 224.735 59.5087 223.773 64.1234C223.071 67.4897 222.463 70.4046 221.243 74.5695C225.617 73.6173 230.08 73.1366 234.556 73.1355Z" fill="#3F3D56"/>
<path opacity="0.1" d="M244.248 40.9445L234.475 62.2327L228.892 56.5783L244.248 40.9445Z" fill="black"/>
<path d="M222.311 52.7689L222.992 54.0936C222.999 54.1058 223 54.1201 222.996 54.1332C222.991 54.1463 222.982 54.1572 222.97 54.1635L222.937 54.1805L226.487 61.0813C226.585 61.2723 226.604 61.4945 226.538 61.699C226.472 61.9035 226.328 62.0736 226.138 62.1719L221.828 64.3911C221.733 64.4397 221.63 64.4693 221.524 64.4781C221.418 64.4868 221.312 64.4746 221.211 64.4422C221.109 64.4097 221.016 64.3576 220.935 64.2889C220.853 64.2202 220.787 64.1361 220.738 64.0416L217.313 57.3827L217.289 57.395C217.28 57.3994 217.27 57.4003 217.261 57.3973C217.252 57.3944 217.244 57.3879 217.24 57.3793L216.852 56.6254C216.85 56.6211 216.848 56.6164 216.848 56.6116C216.847 56.6068 216.848 56.602 216.85 56.5974C216.851 56.5928 216.853 56.5885 216.856 56.5848C216.86 56.5811 216.863 56.5781 216.868 56.5759L216.891 56.5637L216.745 56.2797L216.721 56.292C216.712 56.2967 216.702 56.2975 216.692 56.2944C216.682 56.2912 216.674 56.2844 216.67 56.2753L216.287 55.5317C216.283 55.5226 216.282 55.5121 216.285 55.5024C216.288 55.4927 216.295 55.4847 216.304 55.48L216.328 55.4677L216.128 55.08L216.104 55.0926C216.096 55.0967 216.087 55.0975 216.078 55.0948C216.069 55.092 216.062 55.086 216.058 55.078L215.849 54.6721C215.845 54.6641 215.844 54.6547 215.847 54.6461C215.85 54.6374 215.856 54.6302 215.864 54.6261L215.888 54.6135L215.466 53.7918C215.367 53.6009 215.349 53.3788 215.415 53.1743C215.48 52.9698 215.624 52.7998 215.815 52.7015L220.125 50.4823C220.315 50.384 220.537 50.3656 220.742 50.4311C220.946 50.4966 221.116 50.6407 221.215 50.8316L222.208 52.7634L222.241 52.7465C222.253 52.7402 222.268 52.739 222.281 52.7432C222.294 52.7474 222.305 52.7567 222.311 52.7689Z" fill="#3F3D56"/>
<path d="M220.943 51.1514L226.173 61.3185C226.235 61.4396 226.247 61.5806 226.205 61.7103C226.164 61.84 226.072 61.9479 225.951 62.0102L221.826 64.1345C221.705 64.197 221.564 64.2089 221.435 64.1676C221.305 64.1263 221.198 64.0352 221.135 63.9144L221.134 63.913L215.905 53.746C215.874 53.686 215.855 53.6205 215.849 53.5533C215.844 53.486 215.852 53.4183 215.872 53.3541C215.893 53.2898 215.926 53.2303 215.969 53.1788C216.013 53.1273 216.066 53.0849 216.126 53.054L216.744 52.7361L216.784 52.8153C216.81 52.8647 216.845 52.9087 216.887 52.9446C216.929 52.9805 216.978 53.0077 217.031 53.0246C217.084 53.0416 217.14 53.0479 217.195 53.0434C217.251 53.0388 217.304 53.0233 217.354 52.9979L219.452 51.9175C219.552 51.8662 219.627 51.7773 219.661 51.6705C219.695 51.5636 219.686 51.4476 219.634 51.3478L219.594 51.2685L220.252 50.9297C220.373 50.8674 220.514 50.8556 220.643 50.8972C220.773 50.9387 220.881 51.03 220.943 51.1511L220.943 51.1514Z" fill="#6C63FF"/>
<path d="M222.459 63.5724C222.854 63.5449 223.238 63.4311 223.585 63.2389C223.931 63.0467 224.231 62.7809 224.464 62.4602C224.696 62.1394 224.856 61.7716 224.931 61.3825C225.006 60.9934 224.995 60.5926 224.898 60.2083L232.951 54.9295L228.359 52.9444L221.415 58.2616C220.781 58.4665 220.244 58.8972 219.905 59.4721C219.567 60.0469 219.451 60.726 219.579 61.3806C219.708 62.0353 220.072 62.62 220.603 63.0239C221.134 63.4279 221.794 63.623 222.459 63.5724Z" fill="#FFB8B8"/>
<path d="M230.208 59.7695L230.106 59.6977C228.19 58.2864 226.062 56.8269 224.004 55.4154L223.881 55.3307L223.978 55.2167C228.37 50.0758 232.766 44.706 237.019 39.5114C237.016 39.5031 237.013 39.497 237.011 39.4927L237.051 39.4723L237.068 39.4516L237.077 39.4591L237.102 39.4461L236.987 39.4551L235.676 29.1711C234.492 27.5553 234.265 24.3472 235.817 22.1077C237.424 19.7879 240.824 19.0115 243.093 20.4456C243.687 20.8448 244.184 21.3727 244.547 21.9902C244.91 22.6077 245.129 23.2989 245.189 24.0127C245.273 24.6487 245.215 25.2954 245.017 25.9057C244.82 26.516 244.489 27.0745 244.048 27.5404C244.605 32.9829 244.626 37.8475 244.647 42.553L244.647 42.6L244.618 42.6387C240.085 48.4011 235.105 54.1328 230.289 59.6758L230.208 59.7695Z" fill="#3F3D56"/>
<path d="M96.0783 31.6948C104.295 31.6948 110.956 25.0302 110.956 16.809C110.956 8.58774 104.295 1.92313 96.0783 1.92313C87.8614 1.92313 81.2002 8.58774 81.2002 16.809C81.2002 25.0302 87.8614 31.6948 96.0783 31.6948Z" fill="#6C63FF"/>
<path d="M94.6606 23.0926L90.2075 17.3639L92.7971 15.3487L94.9057 18.0611L102.029 10.5379L104.411 12.7959L94.6606 23.0926Z" fill="white"/>
<path d="M289.185 126.726H213.992C213.909 126.726 213.829 126.693 213.77 126.634C213.711 126.575 213.678 126.495 213.678 126.411C213.678 126.328 213.711 126.248 213.77 126.189C213.829 126.13 213.909 126.096 213.992 126.096H289.185C289.269 126.096 289.349 126.13 289.408 126.189C289.467 126.248 289.5 126.328 289.5 126.411C289.5 126.495 289.467 126.575 289.408 126.634C289.349 126.693 289.269 126.726 289.185 126.726Z" fill="#3F3D56"/>
</g>
<defs>
<clipPath id="clip0_157_333">
<rect width="289" height="136" fill="white" transform="translate(0.5 0.5)"/>
</clipPath>
</defs>
</svg>
