<svg width="32" height="32" viewBox="0 0 32 32" fill="none" xmlns="http://www.w3.org/2000/svg">
<path d="M28 8.5C28 10.8531 25.2297 14.3641 24.0344 15.7656C23.8562 15.9719 23.5938 16.0516 23.3547 16H19C18.1703 16 17.5 16.6703 17.5 17.5C17.5 18.3297 18.1703 19 19 19H23.5C25.9844 19 28 21.0156 28 23.5C28 25.9844 25.9844 28 23.5 28H10.5438C10.9516 27.5359 11.4484 26.9406 11.95 26.275C12.2453 25.8813 12.55 25.45 12.8406 25H23.5C24.3297 25 25 24.3297 25 23.5C25 22.6703 24.3297 22 23.5 22H19C16.5156 22 14.5 19.9844 14.5 17.5C14.5 15.0156 16.5156 13 19 13H20.8656C19.8812 11.5234 19 9.82656 19 8.5C19 6.01562 21.0156 4 23.5 4C25.9844 4 28 6.01562 28 8.5ZM9.48906 26.9266C9.31094 27.1281 9.15156 27.3062 9.01562 27.4562L8.93125 27.55L8.92188 27.5406C8.64062 27.7563 8.2375 27.7281 7.98438 27.4562C6.80312 26.1719 4 22.8672 4 20.5C4 18.0156 6.01562 16 8.5 16C10.9844 16 13 18.0156 13 20.5C13 21.9062 12.0109 23.6406 10.9609 25.0891C10.4594 25.7781 9.94375 26.4016 9.51719 26.8937L9.48906 26.9266ZM10 20.5C10 20.1022 9.84196 19.7206 9.56066 19.4393C9.27936 19.158 8.89782 19 8.5 19C8.10218 19 7.72064 19.158 7.43934 19.4393C7.15804 19.7206 7 20.1022 7 20.5C7 20.8978 7.15804 21.2794 7.43934 21.5607C7.72064 21.842 8.10218 22 8.5 22C8.89782 22 9.27936 21.842 9.56066 21.5607C9.84196 21.2794 10 20.8978 10 20.5ZM23.5 10C23.8978 10 24.2794 9.84196 24.5607 9.56066C24.842 9.27936 25 8.89782 25 8.5C25 8.10218 24.842 7.72064 24.5607 7.43934C24.2794 7.15804 23.8978 7 23.5 7C23.1022 7 22.7206 7.15804 22.4393 7.43934C22.158 7.72064 22 8.10218 22 8.5C22 8.89782 22.158 9.27936 22.4393 9.56066C22.7206 9.84196 23.1022 10 23.5 10Z" fill="#34A22B"/>
</svg>
